<svg version="1.1" id="Layer_1" xmlns="http://www.w3.org/2000/svg" xmlns:xlink="http://www.w3.org/1999/xlink" x="0px" y="0px" viewBox="0 0 500 500" style="width: 188px;" xml:space="preserve" data-imageid="presentation-21" imageName="Presentation" class="illustrations_image">
<style type="text/css">
	.st0_presentation-21{fill:#231F20;}
	.st1_presentation-21{fill:#FFFFFF;}
	.st2_presentation-21{fill:#68E1FD;}
	.st3_presentation-21{fill:#D1D3D4;}
</style>
<path id="Chair_2_presentation-21" class="st0_presentation-21" d="M365.1,209H435c19.8,0,35.8,16,35.8,35.8c0,1.6-0.1,3.2-0.3,4.7l-11.3,84.8H317.1l12.5-94.3&#xA;&#9;C332,222.3,347.2,209,365.1,209z"/>
<g id="Character_Female_presentation-21">
	<path class="st1_presentation-21" d="M275.7,244.4c0,0-18.2-27.1-17.9-20.8c0.3,4,1.3,7.9,3,11.6c0,0-20.9-9.3-22.2-5s14.6,15.4,15.9,17.1&#xA;&#9;&#9;s6.3,10,6.3,10"/>
	<path class="st0_presentation-21" d="M260.9,258.1c-0.2,0-0.5-0.1-0.6-0.3c0-0.1-5-8.3-6.3-9.9c-1.1-1-2.2-1.9-3.3-2.8c-7.3-6-13.7-11.6-12.7-14.9&#xA;&#9;&#9;c0.2-0.6,0.6-1,1.2-1.3c3.6-1.6,15.7,3.1,20.4,5.1c-1.3-3.2-2.1-6.7-2.4-10.2c0-1.1,0.4-1.5,0.8-1.6c2.5-0.9,12.6,13.4,18.4,22&#xA;&#9;&#9;c0.2,0.3,0.1,0.8-0.2,1s-0.8,0.1-1-0.2l0,0c-6.7-9.9-14.5-20.3-16.6-21.3v0.1c0.3,3.9,1.3,7.7,3,11.3c0.2,0.3,0.1,0.8-0.2,1&#xA;&#9;&#9;c-0.2,0.1-0.5,0.1-0.7,0c-4.7-2.1-17.7-7.2-20.9-5.8c-0.3,0.1-0.4,0.3-0.4,0.4c-0.9,2.7,8,9.9,12.2,13.4c1.3,0.9,2.4,2,3.5,3.1&#xA;&#9;&#9;c1.3,1.8,6.2,9.7,6.4,10.1c0.2,0.3,0.1,0.8-0.2,1c0,0,0,0,0,0C261.2,258.1,261,258.1,260.9,258.1z"/>
	<path class="st2_presentation-21 targetColor" d="M276.4,238.5c0,0,28.5,38.5,32.1,38c5.9-7.7,33-47.1,33-47.1c5.4-7.1,20.8-12.5,42.9-9.5c0,0,49.1,1,58.6,16.6&#xA;&#9;&#9;c5.5,9,10.1,32.9,13.1,68.3H282.5c-13.4-20.2-26.1-47.1-26.1-47.1L276.4,238.5z" style="fill: rgb(104, 225, 253);"/>
	<polygon class="st0_presentation-21" points="376.7,227.2 377.8,294.2 407.2,223.6 &#9;"/>
	<path class="st0_presentation-21" d="M377.8,294.9h-0.1c-0.3-0.1-0.6-0.3-0.6-0.7l-1-67c0-0.4,0.3-0.7,0.6-0.7l30.5-3.7c0.2,0,0.5,0.1,0.6,0.3&#xA;&#9;&#9;c0.2,0.2,0.2,0.5,0.1,0.7l-29.5,70.6C378.3,294.7,378,294.9,377.8,294.9z M377.4,227.9l1,63l27.7-66.4L377.4,227.9z"/>
	<path class="st1_presentation-21" d="M362,154.7c10-20.2,38.3-20.7,54.1-6.8c15.5,13.6,16.8,40.3,16.8,59.7c-24.2,16.1-57.8,16.6-82.6,1.4&#xA;&#9;&#9;C352.1,198.7,358.8,161.3,362,154.7z"/>
	<path class="st0_presentation-21" d="M390.5,220.7c-14.3,0.1-28.3-3.7-40.5-11.1c-0.2-0.1-0.4-0.4-0.3-0.7c0.8-4.8,8.1-47.2,11.8-54.5l0,0&#xA;&#9;&#9;c4.2-8.4,11.8-14.1,21.6-16c12-2.3,24.4,1,33.6,9c15,13.2,17,37.8,17,60.2c0,0.2-0.1,0.5-0.3,0.6&#xA;&#9;&#9;C420.6,216.5,405.7,220.8,390.5,220.7z M351.1,208.7c24.2,14.7,57.4,14.1,81.1-1.4c0-21.9-2-46-16.5-58.8&#xA;&#9;&#9;c-8.9-7.7-20.9-10.9-32.5-8.7c-9.3,1.8-16.6,7.2-20.6,15.3C359.8,160.7,354.1,191.2,351.1,208.7L351.1,208.7z"/>
	<path class="st1_presentation-21" d="M369.9,185.4c-0.5-1.6-1.3-3.1-2.4-4.3c-1.1-1.3-2.9-1.7-4.5-1.1c-1.1,0.6-1.8,1.8-1.9,3.1&#xA;&#9;&#9;c-0.1,1.3,0.1,2.5,0.6,3.7c0.7,2.2,1.9,4.2,3.6,5.9c1.7,1.7,4,2.5,6.3,2.5"/>
	<path class="st0_presentation-21" d="M371.1,195.8c-2.4-0.1-4.6-1-6.3-2.7c-1.7-1.7-3-3.9-3.8-6.2c-0.5-1.3-0.7-2.6-0.6-4c0.1-1.5,1-2.9,2.3-3.6&#xA;&#9;&#9;c1.9-0.8,4-0.3,5.3,1.2c1.2,1.3,2,2.9,2.5,4.6c0.2,0.4,0,0.8-0.4,0.9s-0.8,0-0.9-0.4c0,0,0,0,0-0.1c-0.4-1.5-1.2-2.9-2.2-4.1&#xA;&#9;&#9;c-0.9-1.1-2.4-1.4-3.7-0.9c-0.9,0.5-1.5,1.5-1.5,2.5c-0.1,1.2,0.1,2.3,0.6,3.4c0.7,2.1,1.8,4,3.4,5.6c1.5,1.5,3.6,2.3,5.8,2.3&#xA;&#9;&#9;c0.4,0,0.7,0.2,0.7,0.6c0,0,0,0,0,0c0,0.4-0.3,0.7-0.6,0.7c0,0,0,0,0,0L371.1,195.8z"/>
	<path class="st1_presentation-21" d="M378.6,207.5l-2,19.7c0,0,1,11.2,13.3,9c7.4-1.4,13.7-6,17.3-12.6l1.8-34.3c0.1-1.4-5.2-7.5-3.8-20&#xA;&#9;&#9;c-8.5-0.9-16.3-5.3-21.4-12.2c0,0-5.7,7.1-8.1,9.2c-1.9,1.6-3.6,3.5-5.1,5.5c-3.8,5.8-4.2,13.7-3.3,20.2&#xA;&#9;&#9;C368.1,197.6,371.8,207.7,378.6,207.5z"/>
	<path class="st0_presentation-21" d="M386.9,237.2c-2.4,0.1-4.7-0.6-6.7-2.1c-2.4-2-3.9-4.8-4.2-7.8l1.9-19.1c-6.6-0.6-10.4-10-11.2-16&#xA;&#9;&#9;c-0.7-4.8-1.1-13.8,3.4-20.7c1.5-2.1,3.2-4,5.2-5.6c2.3-2.1,8-9.1,8-9.2c0.1-0.2,0.4-0.3,0.6-0.3c0.2,0,0.4,0.1,0.5,0.3&#xA;&#9;&#9;c5,6.7,12.6,11,20.9,11.9c0.4,0,0.7,0.4,0.6,0.8c-0.8,6.1,0.2,12.2,3,17.7c0.4,0.7,0.7,1.5,0.8,2.3l-1.9,34.3c0,0.1,0,0.2-0.1,0.3&#xA;&#9;&#9;c-3.6,6.8-10.2,11.6-17.8,13C389,237.1,387.9,237.2,386.9,237.2z M377.4,227.3c0,0,0.5,4.3,3.7,6.7c2.2,1.6,5.1,2.2,8.8,1.5&#xA;&#9;&#9;c7.1-1.4,13.2-5.8,16.7-12.1l1.8-34.1c-0.2-0.5-0.4-1.1-0.7-1.6c-2.8-5.5-3.9-11.7-3.2-17.8c-8.2-1-15.6-5.2-20.7-11.7&#xA;&#9;&#9;c-2.4,3-4.9,5.9-7.6,8.6c-1.9,1.6-3.5,3.4-5,5.4c-4.3,6.5-3.8,15.1-3.2,19.7c0.7,4.9,4.1,14.8,10.5,14.8h0.1c0.4,0,0.7,0.3,0.7,0.7&#xA;&#9;&#9;c0,0,0,0,0,0.1L377.4,227.3L377.4,227.3z"/>
	<path class="st1_presentation-21" d="M386.9,173.7c0,0-7.2,8.9-5.9,10.7s5.7,1.1,5.7,1.1"/>
	<path class="st0_presentation-21" d="M384.8,186.3c-1.5,0-3.4-0.3-4.4-1.5c-1.5-2,3.6-8.7,5.9-11.5c0.2-0.3,0.7-0.3,1-0.1c0.3,0.2,0.3,0.7,0.1,1&#xA;&#9;&#9;l0,0c-3.6,4.4-6.4,9-5.9,9.8c0.9,1.2,4,1,5,0.8c0.4,0,0.7,0.2,0.8,0.6c0,0.4-0.2,0.7-0.5,0.8C386.1,186.2,385.5,186.3,384.8,186.3z&#xA;&#9;&#9;"/>
	<ellipse transform="matrix(0.1326 -0.9912 0.9912 0.1326 153.3286 527.0059)" class="st0_presentation-21" cx="377.8" cy="175.9" rx="2" ry="1.1"/>
	
		<ellipse transform="matrix(1.169341e-02 -0.9999 0.9999 1.169341e-02 215.8313 569.2671)" class="st0_presentation-21" cx="395.9" cy="175.4" rx="2" ry="1.1"/>
	<path class="st1_presentation-21" d="M403.4,181.8c0.4-1.7,1.2-3.3,2.2-4.7c1.2-1.6,3.1-2.6,5.1-2.6c1.2,0.1,2.4,0.7,3.1,1.7&#xA;&#9;&#9;c0.4,0.7,0.7,1.5,0.8,2.4c0.6,4.4-0.8,10.1-4.9,12.4c-1.4,0.8-3.4,1-4.6,0"/>
	<path class="st0_presentation-21" d="M407,192.3c-0.9,0-1.8-0.3-2.5-0.8c-0.3-0.2-0.4-0.7-0.1-1c0,0,0,0,0,0c0.2-0.3,0.7-0.4,1-0.2c0,0,0,0,0,0&#xA;&#9;&#9;c1.1,0.9,2.8,0.5,3.9-0.1c3.8-2.1,5.2-7.4,4.6-11.6c-0.1-0.7-0.3-1.4-0.7-2.1c-0.6-0.8-1.6-1.3-2.6-1.4c-1.8,0-3.5,0.9-4.5,2.3&#xA;&#9;&#9;c-1,1.4-1.7,2.9-2.1,4.5c-0.1,0.4-0.5,0.6-0.9,0.5s-0.6-0.5-0.5-0.9l0,0c0.5-1.8,1.3-3.4,2.3-4.9c1.3-1.8,3.4-2.9,5.7-2.9&#xA;&#9;&#9;c1.5,0.1,2.8,0.8,3.7,2c0.5,0.8,0.8,1.7,0.9,2.6c0.7,4.7-0.9,10.7-5.3,13.1C409.1,192,408.1,192.3,407,192.3z"/>
	<path class="st0_presentation-21" d="M341.4,299.1L341.4,299.1c-0.4,0-0.7-0.3-0.7-0.7c0,0,0,0,0,0c0-1.5,8-44.3,8.9-49.2c0.1-0.4,0.4-0.6,0.8-0.6&#xA;&#9;&#9;c0,0,0,0,0,0c0.4,0.1,0.6,0.4,0.6,0.8c0,0,0,0,0,0c-3.5,19-8.9,47.7-8.9,49C342.1,298.8,341.8,299.1,341.4,299.1z"/>
	<path class="st0_presentation-21" d="M420.8,302.2c-0.4,0-0.7-0.3-0.7-0.7v0v-54.1c0-0.4,0.3-0.7,0.7-0.7c0.4,0,0.7,0.3,0.7,0.7c0,0,0,0,0,0v54.1&#xA;&#9;&#9;C421.5,301.9,421.2,302.2,420.8,302.2z"/>
	<path class="st1_presentation-21" d="M393.9,188l-16.1,1.5c0,0,0,11.5,6.8,10.7S393.3,195.1,393.9,188z"/>
	<path class="st0_presentation-21" d="M383.9,201c-1.3,0-2.6-0.5-3.5-1.3c-3.3-2.9-3.4-9.8-3.4-10.1c0-0.4,0.3-0.7,0.6-0.7l16.1-1.5&#xA;&#9;&#9;c0.2,0,0.4,0.1,0.6,0.2c0.1,0.1,0.2,0.3,0.2,0.6c-0.4,6.2-2,12-9.9,12.9C384.4,201,384.2,201,383.9,201z M378.5,190.2&#xA;&#9;&#9;c0.1,1.7,0.6,6.4,2.9,8.5c0.9,0.8,2,1.1,3.1,0.9c5.5-0.6,7.9-3.6,8.6-10.8L378.5,190.2z"/>
	<path class="st0_presentation-21" d="M378.6,207.5c6.4,0.1,12.8-1.1,18.8-3.5c0,0-11.1,13.4-19.7,18.4L378.6,207.5z"/>
	<path class="st0_presentation-21" d="M377.8,223.1c-0.1,0-0.3,0-0.4-0.1c-0.2-0.1-0.3-0.4-0.3-0.6l0.9-14.9c0-0.4,0.3-0.7,0.7-0.7c0,0,0,0,0,0&#xA;&#9;&#9;c6.3,0.1,12.6-1.1,18.5-3.4c0.3-0.1,0.6,0,0.8,0.2c0.2,0.3,0.2,0.6,0,0.9c-0.5,0.5-11.3,13.5-19.9,18.5&#xA;&#9;&#9;C378,223.1,377.9,223.1,377.8,223.1z M379.3,208.2l-0.8,12.9c6.1-3.9,13.3-11.6,16.5-15.4C390,207.4,384.7,208.3,379.3,208.2z"/>
	<path class="st0_presentation-21" d="M370,267c-0.2,0-0.4-0.1-0.5-0.2l-12.9-13.5c-0.1-0.1-0.2-0.3-0.2-0.6c0-0.2,0.1-0.4,0.3-0.5l12.1-8.2l-12.1-9&#xA;&#9;&#9;c-0.2-0.1-0.3-0.4-0.3-0.6c0-0.2,0.1-0.4,0.3-0.6l14.4-10c0.3-0.2,0.8-0.2,1,0.2c0,0,0,0,0,0c0.2,0.3,0.2,0.7-0.1,1c0,0,0,0,0,0&#xA;&#9;&#9;l-13.6,9.4l12.1,9c0.2,0.1,0.3,0.4,0.3,0.6c0,0.2-0.1,0.4-0.3,0.6l-12.2,8.4l12.3,12.9c0.2,0.3,0.2,0.7-0.1,1&#xA;&#9;&#9;C370.3,267,370.2,267,370,267z"/>
	<path class="st0_presentation-21" d="M394.7,268c-0.2,0-0.5-0.1-0.6-0.3c-0.2-0.3-0.1-0.8,0.2-1c0,0,0,0,0,0l19-11.3l-10.5-11.9&#xA;&#9;&#9;c-0.3-0.3-0.2-0.7,0.1-1c0.1,0,0.1-0.1,0.2-0.1l13.1-6.1l-7.6-8.3c-0.3-0.3-0.3-0.7,0-1c0,0,0,0,0,0c0.3-0.3,0.7-0.3,1,0l8.3,9&#xA;&#9;&#9;c0.3,0.3,0.2,0.7,0,1c-0.1,0-0.1,0.1-0.2,0.1l-13.1,6.1l10.4,11.8c0.1,0.2,0.2,0.4,0.2,0.6c0,0.2-0.2,0.4-0.3,0.5L395,267.9&#xA;&#9;&#9;C394.9,268,394.8,268,394.7,268z"/>
</g>
<g id="Desk_presentation-21">
	<rect x="127.2" y="301.5" class="st1_presentation-21" width="347.6" height="71.5"/>
	<path class="st0_presentation-21" d="M474.8,373.7H127.2c-0.4,0-0.6-0.3-0.6-0.6l0,0v-71.5c0-0.4,0.3-0.6,0.6-0.6c0,0,0,0,0,0h347.6&#xA;&#9;&#9;c0.4,0,0.6,0.3,0.6,0.6v0v71.5C475.5,373.4,475.2,373.7,474.8,373.7z M127.8,372.4h346.4v-70.3H127.8L127.8,372.4z"/>
	<rect x="127.2" y="373" class="st1_presentation-21" width="347.6" height="14.2"/>
	<path class="st0_presentation-21" d="M474.8,387.9H127.2c-0.3,0-0.6-0.3-0.6-0.6c0,0,0,0,0,0V373c0-0.3,0.3-0.6,0.6-0.6c0,0,0,0,0,0h347.6&#xA;&#9;&#9;c0.4,0,0.6,0.3,0.6,0.6v0v14.2C475.5,387.6,475.2,387.9,474.8,387.9L474.8,387.9z M127.8,386.6h346.4v-12.9H127.8L127.8,386.6z"/>
</g>
<g id="Screen_presentation-21">
	<path class="st1_presentation-21" d="M179,112.8h140.8c2.8,0,5.1,2.3,5.1,5.2v91.5c0,2.8-2.3,5.1-5.1,5.1H179c-2.8,0-5.1-2.3-5.1-5.1v-91.5&#xA;&#9;&#9;C173.8,115.1,176.1,112.8,179,112.8z"/>
	<path class="st3_presentation-21" d="M319.7,215.3H179c-3.2,0-5.9-2.6-5.9-5.9v-91.5c0-3.2,2.6-5.9,5.9-5.8h140.7c3.2,0,5.9,2.6,5.9,5.8&#xA;&#9;&#9;c0,0,0,0,0,0v91.5C325.6,212.7,323,215.3,319.7,215.3z M179,113.5c-2.5,0-4.5,2-4.5,4.4v91.5c0,2.5,2,4.5,4.5,4.5h0h140.7&#xA;&#9;&#9;c2.5,0,4.5-2,4.5-4.5v-91.5c0-2.5-2-4.4-4.5-4.4l0,0L179,113.5z"/>
	<rect x="181" y="120.6" class="st1_presentation-21" width="136.7" height="86.1"/>
	<path class="st3_presentation-21" d="M317.7,207.4H181c-0.4,0-0.7-0.3-0.7-0.7v-86.1c0-0.4,0.3-0.7,0.7-0.7h136.7c0.4,0,0.7,0.3,0.7,0.7v0v86.1&#xA;&#9;&#9;C318.4,207.1,318.1,207.4,317.7,207.4L317.7,207.4z M181.7,206.1H317v-84.7H181.7L181.7,206.1z"/>
	<circle class="st1_presentation-21" cx="202.2" cy="155.2" r="4.4"/>
	<path class="st3_presentation-21" d="M202.2,160.3c-2.8,0-5.2-2.3-5.2-5.1c0-2.8,2.3-5.2,5.1-5.2c2.8,0,5.2,2.3,5.2,5.1c0,0,0,0,0,0&#xA;&#9;&#9;C207.3,158,205,160.3,202.2,160.3z M202.2,151.4c-2.1,0-3.8,1.7-3.8,3.7s1.7,3.8,3.7,3.8c2.1,0,3.8-1.7,3.8-3.7c0,0,0,0,0,0&#xA;&#9;&#9;C205.9,153.1,204.2,151.5,202.2,151.4z"/>
	<path class="st3_presentation-21" d="M274.3,155.9H216c-0.4,0-0.7-0.3-0.7-0.7c0-0.4,0.3-0.7,0.7-0.7h58.3c0.4,0,0.7,0.3,0.7,0.7&#xA;&#9;&#9;S274.7,155.9,274.3,155.9C274.3,155.9,274.3,155.9,274.3,155.9z"/>
	<circle class="st1_presentation-21" cx="202.2" cy="171" r="4.4"/>
	<path class="st3_presentation-21" d="M202.2,176.1c-2.8,0-5.2-2.3-5.2-5.1c0-2.8,2.3-5.2,5.1-5.2c2.8,0,5.2,2.3,5.2,5.1c0,0,0,0,0,0.1&#xA;&#9;&#9;C207.3,173.8,205,176.1,202.2,176.1z M202.2,167.2c-2.1,0-3.8,1.7-3.8,3.7c0,2.1,1.7,3.8,3.7,3.8c2.1,0,3.7-1.7,3.8-3.7&#xA;&#9;&#9;C205.9,168.9,204.3,167.2,202.2,167.2C202.2,167.2,202.2,167.2,202.2,167.2z"/>
	<path class="st3_presentation-21" d="M300.9,171.7H216c-0.4,0-0.7-0.3-0.7-0.7c0-0.4,0.3-0.7,0.7-0.7h84.9c0.4,0,0.7,0.3,0.7,0.7&#xA;&#9;&#9;S301.3,171.7,300.9,171.7C300.9,171.7,300.9,171.7,300.9,171.7z"/>
	<circle class="st1_presentation-21" cx="202.2" cy="186.7" r="4.4"/>
	<path class="st3_presentation-21" d="M202.2,191.9c-2.8,0-5.2-2.3-5.2-5.1c0-2.8,2.3-5.2,5.1-5.2c2.8,0,5.2,2.3,5.2,5.1c0,0,0,0,0,0&#xA;&#9;&#9;C207.3,189.5,205,191.8,202.2,191.9z M202.2,183c-2.1,0-3.8,1.7-3.8,3.7c0,2.1,1.7,3.8,3.7,3.8c2.1,0,3.8-1.7,3.8-3.7c0,0,0,0,0,0&#xA;&#9;&#9;C205.9,184.7,204.2,183,202.2,183L202.2,183z"/>
	<path class="st3_presentation-21" d="M291.4,187.4H216c-0.4,0-0.7-0.3-0.7-0.7c0-0.4,0.3-0.7,0.7-0.7c0,0,0,0,0,0h75.4c0.4,0,0.7,0.3,0.7,0.7&#xA;&#9;&#9;S291.8,187.4,291.4,187.4C291.4,187.4,291.4,187.4,291.4,187.4z"/>
	<circle class="st3_presentation-21" cx="182.4" cy="210.5" r="1.3"/>
	<circle class="st3_presentation-21" cx="187.5" cy="210.5" r="1.3"/>
	<rect x="197.7" y="131.8" class="st3_presentation-21" width="42.3" height="6.6"/>
</g>
<g id="Sheets_presentation-21">
	<rect x="395.8" y="313.6" class="st1_presentation-21" width="48.4" height="44.7"/>
	<path class="st3_presentation-21" d="M444.1,359h-48.4c-0.4,0-0.7-0.3-0.7-0.7v0v-44.7c0-0.4,0.3-0.7,0.7-0.7h0h48.4c0.4,0,0.7,0.3,0.7,0.7v0v44.7&#xA;&#9;&#9;C444.8,358.7,444.5,359,444.1,359z M396.5,357.6h47v-43.3h-47V357.6z"/>
	<rect x="390.6" y="311" class="st1_presentation-21" width="48.4" height="44.7"/>
	<path class="st3_presentation-21" d="M438.9,356.4h-48.4c-0.4,0-0.7-0.3-0.7-0.7v0V311c0-0.4,0.3-0.7,0.7-0.7h0h48.4c0.4,0,0.7,0.3,0.7,0.7v44.7&#xA;&#9;&#9;C439.6,356.1,439.3,356.4,438.9,356.4C438.9,356.4,438.9,356.4,438.9,356.4z M391.3,355h47v-43.3h-47V355z"/>
</g>
<g id="Character_Male_presentation-21">
	<path class="st0_presentation-21" d="M146.3,195.6c-4,0-7.2-3.2-7.2-7.2c0-4,3.2-7.2,7.2-7.2c3.8,0,7,3,7.2,6.8l0,0c0.2,3.9-2.8,7.3-6.8,7.5&#xA;&#9;&#9;c0,0,0,0,0,0L146.3,195.6z M146.3,182.7H146c-3.2,0.1-5.7,2.7-5.6,5.9s2.7,5.7,5.9,5.6c0.1,0,0.2,0,0.3,0c3.2-0.1,5.6-2.8,5.5-6&#xA;&#9;&#9;c0,0,0,0,0-0.1l0,0C151.9,185.1,149.4,182.7,146.3,182.7L146.3,182.7z"/>
	<path class="st1_presentation-21" d="M101.3,218.9c-5.2,0-10.3-2.1-13.4-6.9c-2.1-3.2-2.9-7-3.5-10.7c-1-6.5-1.3-13.1-0.9-19.7&#xA;&#9;&#9;c0.3-5.2-1.1-11.9,1.9-16.5c1.6-2.5,4.1-3.4,6.9-3.6c-0.2-0.6-0.1-1.1,0.1-1.7c1.5-3.4,4.7-5.7,8.2-6.8c8.7-2.9,19.1-2,27.9,0.1&#xA;&#9;&#9;c8.3,2,18.4,7.9,17.8,17.9c-0.2,3.6-2.8,7.1-6.4,7.5c-1.3,10.6-6.4,18.1-13,26.1c-4.4,5.5-10.1,9.8-16.5,12.5&#xA;&#9;&#9;C107.5,218.3,104.4,218.9,101.3,218.9z"/>
	<path class="st0_presentation-21" d="M101.5,219.6h-0.2c-6-0.1-11-2.6-14-7.2c-2.2-3.4-3.1-7.4-3.6-11c-1-6.6-1.4-13.2-1-19.9c0.1-1.4,0-2.9,0-4.5&#xA;&#9;&#9;c-0.1-4.2-0.2-8.9,2.1-12.3c1.5-2.2,4-3.6,6.7-3.8c0-0.5,0.1-0.9,0.2-1.3c1.7-3.5,4.9-6.1,8.6-7.2c9.5-3.2,20.6-1.7,28.3,0.1&#xA;&#9;&#9;c9.5,2.3,18.9,8.9,18.4,18.6c-0.2,3.5-2.6,7.4-6.4,8.1c-1.5,11-7,18.5-13.1,25.9c-4.5,5.6-10.2,9.9-16.8,12.7&#xA;&#9;&#9;C107.8,218.9,104.7,219.6,101.5,219.6z M113,151.9c-4.1-0.1-8.3,0.6-12.2,1.8c-3.7,1.2-6.5,3.6-7.8,6.4c-0.2,0.4-0.2,0.8-0.1,1.2&#xA;&#9;&#9;c0.1,0.2,0,0.4-0.1,0.6c-0.1,0.2-0.3,0.3-0.5,0.3c-3,0.2-5,1.2-6.3,3.3c-2,3.1-1.9,7.4-1.8,11.5c0,1.6,0.1,3.2,0,4.6&#xA;&#9;&#9;c-0.4,6.5,0,13.1,1,19.6c0.5,3.4,1.4,7.3,3.4,10.4c2.7,4.2,7.3,6.5,12.9,6.5l0,0c3,0,6-0.6,8.8-1.7c6.3-2.7,11.9-6.9,16.2-12.3&#xA;&#9;&#9;c7.2-8.8,11.6-15.9,12.8-25.8c0-0.3,0.3-0.6,0.6-0.6c3.3-0.3,5.5-3.8,5.7-6.8c0.6-10.1-10.6-15.5-17.3-17.1&#xA;&#9;&#9;C123.3,152.6,118.2,151.9,113,151.9z"/>
	<path class="st1_presentation-21" d="M143.5,193.6c0,0,8.2,12,6.5,14.5s-7.1,0.9-7.1,0.9"/>
	<path class="st0_presentation-21" d="M146.4,210.3c-1.2,0-2.5-0.2-3.7-0.5c-0.4-0.1-0.6-0.5-0.5-0.9c0.1-0.4,0.5-0.6,0.9-0.5&#xA;&#9;&#9;c1.4,0.4,5.3,1.1,6.4-0.6c0.9-1.3-2.7-8.2-6.5-13.8c-0.2-0.3-0.2-0.8,0.2-1c0,0,0,0,0,0c0.3-0.2,0.8-0.1,1,0.2&#xA;&#9;&#9;c2,2.9,8.3,12.6,6.5,15.3C149.8,209.9,148,210.3,146.4,210.3z"/>
	<path class="st1_presentation-21" d="M141.6,177.7c5.1,4.1,3.8,12.9,3.8,18.6c0,8-0.1,16.1-0.4,24.1c-0.2,5.1-13.4,5.4-15.8,3.9l2.5,13.4l-30.4-3.3&#xA;&#9;&#9;v-15.6c0,0,12.2-1.5,17.3-11.9s4-33,4-33S136.6,173.7,141.6,177.7z"/>
	<path class="st0_presentation-21" d="M131.7,238.4L131.7,238.4l-30.4-3.3c-0.4,0-0.6-0.3-0.6-0.7v-15.6c0-0.4,0.3-0.6,0.6-0.7&#xA;&#9;&#9;c0.1,0,11.9-1.6,16.7-11.5c4.9-10.2,3.9-32.4,3.9-32.7c0-0.4,0.3-0.7,0.7-0.7c0,0,0,0,0,0c0.6,0,14.3-0.2,19.4,3.9&#xA;&#9;&#9;c4.6,3.6,4.3,10.5,4.1,16.1c0,1.1-0.1,2.1-0.1,3.1c0.1,8-0.1,16.1-0.4,24.1c0,1-0.6,2.5-2.8,3.6c-3.5,1.8-9.8,2-12.8,1.3l2.3,12.2&#xA;&#9;&#9;c0,0.2,0,0.4-0.2,0.6C132.1,238.3,131.9,238.4,131.7,238.4z M102.1,233.8l28.8,3.1l-2.3-12.5c0-0.3,0.1-0.6,0.3-0.7&#xA;&#9;&#9;c0.2-0.2,0.5-0.2,0.8,0c1.5,1,8.9,1.1,12.7-0.9c1.3-0.7,2-1.5,2-2.5c0.3-8,0.5-16.1,0.4-24.1c0-1,0-2,0.1-3.1&#xA;&#9;&#9;c0.2-5.2,0.4-11.7-3.6-14.9l0,0c-4.1-3.3-14.9-3.6-17.8-3.6c0.1,4,0.5,23-4.1,32.6s-14.6,11.8-17.2,12.2V233.8z"/>
	<path class="st0_presentation-21" d="M110.6,199.6h-0.2c-0.4-0.1-0.6-0.5-0.5-0.8c0.9-4.1,1.8-4.2,2.1-4.2c0.7-0.1,26.9-4.7,40.6-7.1&#xA;&#9;&#9;c0.4-0.1,0.7,0.2,0.8,0.5c0,0,0,0,0,0c0.1,0.4-0.2,0.7-0.6,0.8c-1.6,0.3-37.7,6.6-40.5,7.1c-0.5,1-0.8,2.1-1.1,3.2&#xA;&#9;&#9;C111.2,199.4,111,199.6,110.6,199.6z M112.2,196L112.2,196z"/>
	<path class="st1_presentation-21" d="M128.2,199c-0.1-2-1.2-3.8-2.3-5.5c-0.8-1.3-1.8-2.6-3-3.6c-1.2-1.1-2.8-1.5-4.3-1.3c-1.4,0.4-2.5,1.3-3.1,2.5&#xA;&#9;&#9;c-0.6,1.2-1,2.6-1,4c-0.2,6.2,2.9,11.9,8.2,15.2l-0.4-0.5"/>
	<path class="st0_presentation-21" d="M122.6,211.1c-0.1,0-0.2,0-0.3-0.1c-5.4-3.4-8.7-9.4-8.5-15.8c0-1.5,0.3-3,1-4.3c0.7-1.4,2-2.5,3.6-2.9&#xA;&#9;&#9;c1.8-0.3,3.6,0.2,4.9,1.4c1.2,1.1,2.3,2.4,3.1,3.8c1.1,1.6,2.4,3.6,2.4,5.9c0,0.4-0.3,0.7-0.7,0.7c0,0,0,0,0,0&#xA;&#9;&#9;c-0.4,0-0.7-0.3-0.7-0.7c0-1.9-1.2-3.7-2.2-5.1c-0.8-1.3-1.7-2.5-2.8-3.5c-1-0.9-2.4-1.3-3.8-1.1c-1.1,0.3-2.1,1.1-2.6,2.2&#xA;&#9;&#9;c-0.6,1.2-0.9,2.4-0.9,3.7c-0.2,5.5,2.5,10.8,6.9,14c0.2,0,0.4,0.1,0.6,0.2l0.4,0.4c0.2,0.3,0.3,0.7,0.1,0.9&#xA;&#9;&#9;C123,211,122.8,211.1,122.6,211.1z"/>
	
		<ellipse transform="matrix(0.9977 -6.714462e-02 6.714462e-02 0.9977 -12.267 9.8935)" class="st0_presentation-21" cx="141" cy="187.4" rx="1.1" ry="2.9"/>
	<path class="st1_presentation-21" d="M94.7,240.5l2.1-11l39,2.4l2.4,7.9C138.3,239.8,116.9,250.8,94.7,240.5z"/>
	<path class="st0_presentation-21" d="M115,245.6c-7.1,0-14.1-1.5-20.6-4.5c-0.3-0.1-0.5-0.5-0.4-0.8l2.2-11c0.1-0.3,0.4-0.6,0.7-0.6l39,2.4&#xA;&#9;&#9;c0.3,0,0.5,0.2,0.6,0.5l2.4,7.9c0.1,0.3,0,0.7-0.4,0.8C131.2,243.8,123.2,245.6,115,245.6z M95.5,240.1c19.5,8.8,38.6,0.9,42-0.6&#xA;&#9;&#9;l-2.1-6.9l-37.9-2.3L95.5,240.1z"/>
	<path class="st0_presentation-21" d="M145.3,210.4c0,0-7.5,0.5-8.4,1.6c-0.8,1.4-1.4,2.9-1.8,4.4l9.6-1.6L145.3,210.4z"/>
	<path class="st1_presentation-21" d="M246.8,336.9c0,0,27.1-12.9,28.9-13.4c3.3-0.9-7.1-11.4-10.4-11.1s-13.6,3.3-13.6,3.3s-1.3-3.3-3-3.3&#xA;&#9;&#9;s-10.7,7.9-10.7,7.9L246.8,336.9z"/>
	<path class="st0_presentation-21" d="M246.8,337.5c-0.3,0-0.5-0.1-0.6-0.4l-8.7-16.6c-0.2-0.3-0.1-0.6,0.1-0.9c2.1-1.9,9.2-8.1,11.1-8.1&#xA;&#9;&#9;c1.7,0,2.9,2.1,3.4,3.1c2.3-0.7,10.3-2.9,13.2-3.1c3.3-0.2,11.2,7.4,11.7,10.6c0.2,0.8-0.2,1.6-1.1,1.9c0,0,0,0-0.1,0&#xA;&#9;&#9;c-1.3,0.4-17.9,8.2-28.8,13.4C247,337.5,246.9,337.6,246.8,337.5z M238.9,320.4l8.1,15.5c4.7-2.2,26.7-12.7,28.4-13.1&#xA;&#9;&#9;c0.1,0,0.3-0.5-0.6-1.8c-2.2-3.5-7.7-8.1-9.5-8c-3.2,0.2-13.4,3.2-13.5,3.3c-0.3,0.1-0.7-0.1-0.9-0.4c-0.4-0.9-1.4-2.8-2.4-2.8&#xA;&#9;&#9;S242.9,316.9,238.9,320.4L238.9,320.4z"/>
	<path class="st0_presentation-21" d="M227.7,320.2c1,0,10.4-2.6,10.4-2.6l11,20.3l-13.1,5.8L227.7,320.2z"/>
	<path class="st2_presentation-21 targetColor" d="M46.5,378.3c0,0-5.7-120.2,25-136.5c9.5-5.1,86.6-8.5,104.8,6.8s19.7,77.5,19.7,77.5l33.8-8l13.5,24.5&#xA;&#9;&#9;c0,0-49.9,22.9-59.4,27.4C167.7,377.5,46.5,378.3,46.5,378.3z" style="fill: rgb(104, 225, 253);"/>
	<path class="st0_presentation-21" d="M149.7,326.4L149.7,326.4c-0.4,0-0.7-0.4-0.7-0.8l6.2-68.3c0-0.4,0.4-0.7,0.8-0.6c0,0,0,0,0,0&#xA;&#9;&#9;c0.4,0,0.7,0.4,0.6,0.8l-6.2,68.3C150.4,326.1,150.1,326.4,149.7,326.4z"/>
</g>
<path id="Chair_1_presentation-21" class="st0_presentation-21" d="M130.2,261.9H60.3c-19.8,0-35.8,16-35.8,35.8c0,1.6,0.1,3.2,0.3,4.7l11.3,84.8h142.1L165.6,293&#xA;&#9;C163.3,275.2,148.1,261.9,130.2,261.9z"/>
</svg>