<svg id="visual" viewBox="0 0 960 540" width="960" height="540" xmlns="http://www.w3.org/2000/svg" xmlns:xlink="http://www.w3.org/1999/xlink" version="1.1"><rect x="0" y="0" width="960" height="540" fill="#0a1419"></rect><defs><linearGradient id="grad1_0" x1="43.8%" y1="0%" x2="100%" y2="100%"><stop offset="14.444444444444446%" stop-color="#3da3d3" stop-opacity="1"></stop><stop offset="85.55555555555554%" stop-color="#3da3d3" stop-opacity="1"></stop></linearGradient></defs><defs><linearGradient id="grad1_1" x1="43.8%" y1="0%" x2="100%" y2="100%"><stop offset="14.444444444444446%" stop-color="#3da3d3" stop-opacity="1"></stop><stop offset="85.55555555555554%" stop-color="#3483a9" stop-opacity="1"></stop></linearGradient></defs><defs><linearGradient id="grad1_2" x1="43.8%" y1="0%" x2="100%" y2="100%"><stop offset="14.444444444444446%" stop-color="#2a6581" stop-opacity="1"></stop><stop offset="85.55555555555554%" stop-color="#3483a9" stop-opacity="1"></stop></linearGradient></defs><defs><linearGradient id="grad1_3" x1="43.8%" y1="0%" x2="100%" y2="100%"><stop offset="14.444444444444446%" stop-color="#2a6581" stop-opacity="1"></stop><stop offset="85.55555555555554%" stop-color="#21485c" stop-opacity="1"></stop></linearGradient></defs><defs><linearGradient id="grad1_4" x1="43.8%" y1="0%" x2="100%" y2="100%"><stop offset="14.444444444444446%" stop-color="#172d39" stop-opacity="1"></stop><stop offset="85.55555555555554%" stop-color="#21485c" stop-opacity="1"></stop></linearGradient></defs><defs><linearGradient id="grad1_5" x1="43.8%" y1="0%" x2="100%" y2="100%"><stop offset="14.444444444444446%" stop-color="#172d39" stop-opacity="1"></stop><stop offset="85.55555555555554%" stop-color="#0a1419" stop-opacity="1"></stop></linearGradient></defs><defs><linearGradient id="grad2_0" x1="0%" y1="0%" x2="56.3%" y2="100%"><stop offset="14.444444444444446%" stop-color="#3da3d3" stop-opacity="1"></stop><stop offset="85.55555555555554%" stop-color="#3da3d3" stop-opacity="1"></stop></linearGradient></defs><defs><linearGradient id="grad2_1" x1="0%" y1="0%" x2="56.3%" y2="100%"><stop offset="14.444444444444446%" stop-color="#3483a9" stop-opacity="1"></stop><stop offset="85.55555555555554%" stop-color="#3da3d3" stop-opacity="1"></stop></linearGradient></defs><defs><linearGradient id="grad2_2" x1="0%" y1="0%" x2="56.3%" y2="100%"><stop offset="14.444444444444446%" stop-color="#3483a9" stop-opacity="1"></stop><stop offset="85.55555555555554%" stop-color="#2a6581" stop-opacity="1"></stop></linearGradient></defs><defs><linearGradient id="grad2_3" x1="0%" y1="0%" x2="56.3%" y2="100%"><stop offset="14.444444444444446%" stop-color="#21485c" stop-opacity="1"></stop><stop offset="85.55555555555554%" stop-color="#2a6581" stop-opacity="1"></stop></linearGradient></defs><defs><linearGradient id="grad2_4" x1="0%" y1="0%" x2="56.3%" y2="100%"><stop offset="14.444444444444446%" stop-color="#21485c" stop-opacity="1"></stop><stop offset="85.55555555555554%" stop-color="#172d39" stop-opacity="1"></stop></linearGradient></defs><defs><linearGradient id="grad2_5" x1="0%" y1="0%" x2="56.3%" y2="100%"><stop offset="14.444444444444446%" stop-color="#0a1419" stop-opacity="1"></stop><stop offset="85.55555555555554%" stop-color="#172d39" stop-opacity="1"></stop></linearGradient></defs><g transform="translate(960, 0)"><path d="M0 486C-38.6 489.4 -77.1 492.8 -108.1 473.8C-139.1 454.9 -162.6 413.6 -185.7 385.6C-208.8 357.7 -231.6 343 -264.4 331.5C-297.1 320 -339.7 311.6 -358.1 285.6C-376.5 259.6 -370.7 216 -380.2 183.1C-389.7 150.2 -414.6 128 -434.8 99.2C-455 70.5 -470.5 35.3 -486 0L0 0Z" fill="#122028"></path><path d="M0 405C-32.1 407.8 -64.3 410.6 -90.1 394.8C-116 379.1 -135.5 344.6 -154.8 321.3C-174 298 -193 285.9 -220.3 276.2C-247.6 266.6 -283.1 259.6 -298.4 238C-313.7 216.3 -308.9 180 -316.8 152.6C-324.8 125.2 -345.5 106.7 -362.3 82.7C-379.2 58.8 -392.1 29.4 -405 0L0 0Z" fill="#1c3a4a"></path><path d="M0 324C-25.7 326.3 -51.4 328.5 -72.1 315.9C-92.8 303.2 -108.4 275.7 -123.8 257.1C-139.2 238.4 -154.4 228.7 -176.2 221C-198 213.3 -226.5 207.7 -238.7 190.4C-251 173 -247.1 144 -253.5 122.1C-259.8 100.1 -276.4 85.3 -289.9 66.2C-303.3 47 -313.7 23.5 -324 0L0 0Z" fill="#26566e"></path><path d="M0 243C-19.3 244.7 -38.6 246.4 -54.1 236.9C-69.6 227.4 -81.3 206.8 -92.9 192.8C-104.4 178.8 -115.8 171.5 -132.2 165.7C-148.5 160 -169.8 155.8 -179 142.8C-188.2 129.8 -185.3 108 -190.1 91.5C-194.9 75.1 -207.3 64 -217.4 49.6C-227.5 35.3 -235.3 17.6 -243 0L0 0Z" fill="#2f7495"></path><path d="M0 162C-12.9 163.1 -25.7 164.3 -36 157.9C-46.4 151.6 -54.2 137.9 -61.9 128.5C-69.6 119.2 -77.2 114.3 -88.1 110.5C-99 106.7 -113.2 103.9 -119.4 95.2C-125.5 86.5 -123.6 72 -126.7 61C-129.9 50.1 -138.2 42.7 -144.9 33.1C-151.7 23.5 -156.8 11.8 -162 0L0 0Z" fill="#3893be"></path><path d="M0 81C-6.4 81.6 -12.9 82.1 -18 79C-23.2 75.8 -27.1 68.9 -31 64.3C-34.8 59.6 -38.6 57.2 -44.1 55.2C-49.5 53.3 -56.6 51.9 -59.7 47.6C-62.7 43.3 -61.8 36 -63.4 30.5C-65 25 -69.1 21.3 -72.5 16.5C-75.8 11.8 -78.4 5.9 -81 0L0 0Z" fill="#3da3d3"></path></g><g transform="translate(0, 540)"><path d="M0 -486C36.8 -485.1 73.5 -484.3 108.1 -473.8C142.8 -463.4 175.2 -443.3 200.9 -417.1C226.6 -391 245.5 -358.7 266.2 -333.8C287 -309 309.6 -291.5 343.2 -273.7C376.9 -256 421.5 -238 428.9 -206.5C436.2 -175.1 406.2 -130.1 409.5 -93.5C412.8 -56.8 449.4 -28.4 486 0L0 0Z" fill="#122028"></path><path d="M0 -405C30.6 -404.3 61.3 -403.6 90.1 -394.8C119 -386.1 146 -369.4 167.4 -347.6C188.8 -325.8 204.6 -298.9 221.9 -278.2C239.2 -257.5 258 -242.9 286 -228.1C314.1 -213.3 351.3 -198.3 357.4 -172.1C363.5 -145.9 338.5 -108.4 341.2 -77.9C344 -47.3 374.5 -23.7 405 0L0 0Z" fill="#1c3a4a"></path><path d="M0 -324C24.5 -323.4 49 -322.8 72.1 -315.9C95.2 -308.9 116.8 -295.5 133.9 -278.1C151 -260.7 163.7 -239.2 177.5 -222.6C191.3 -206 206.4 -194.3 228.8 -182.5C251.2 -170.6 281 -158.7 285.9 -137.7C290.8 -116.7 270.8 -86.8 273 -62.3C275.2 -37.9 299.6 -18.9 324 0L0 0Z" fill="#26566e"></path><path d="M0 -243C18.4 -242.6 36.8 -242.1 54.1 -236.9C71.4 -231.7 87.6 -221.7 100.4 -208.6C113.3 -195.5 122.7 -179.4 133.1 -166.9C143.5 -154.5 154.8 -145.7 171.6 -136.9C188.4 -128 210.8 -119 214.4 -103.3C218.1 -87.5 203.1 -65.1 204.7 -46.7C206.4 -28.4 224.7 -14.2 243 0L0 0Z" fill="#2f7495"></path><path d="M0 -162C12.3 -161.7 24.5 -161.4 36 -157.9C47.6 -154.5 58.4 -147.8 67 -139C75.5 -130.3 81.8 -119.6 88.7 -111.3C95.7 -103 103.2 -97.2 114.4 -91.2C125.6 -85.3 140.5 -79.3 143 -68.8C145.4 -58.4 135.4 -43.4 136.5 -31.2C137.6 -18.9 149.8 -9.5 162 0L0 0Z" fill="#3893be"></path><path d="M0 -81C6.1 -80.9 12.3 -80.7 18 -79C23.8 -77.2 29.2 -73.9 33.5 -69.5C37.8 -65.2 40.9 -59.8 44.4 -55.6C47.8 -51.5 51.6 -48.6 57.2 -45.6C62.8 -42.7 70.3 -39.7 71.5 -34.4C72.7 -29.2 67.7 -21.7 68.2 -15.6C68.8 -9.5 74.9 -4.7 81 0L0 0Z" fill="#3da3d3"></path></g></svg>