<svg version="1.1" id="Layer_1" xmlns="http://www.w3.org/2000/svg" xmlns:xlink="http://www.w3.org/1999/xlink" x="0px" y="0px" viewBox="0 0 500 500" style="width: 188px;" xml:space="preserve" data-imageid="creativity-28" imageName="Creativity" class="illustrations_image">
<style type="text/css">
	.st0_creativity-28{fill:#FFFFFF;}
	.st1_creativity-28{fill:#D1D3D4;}
	.st2_creativity-28{fill:#231F20;}
	.st3_creativity-28{fill:#68E1FD;}
</style>
<g id="Bubble_creativity-28">
	<path class="st0_creativity-28" d="M471.4,247.3c0.3-4.3,0.3-8.7-0.2-13c-2-16.3-9.9-31.4-22.1-42.4c-12.5-11.1-21.5-7.7-36.9-10.5&#xA;&#9;&#9;c-6.3-1.1-12.7-0.3-18.5,2.3c0.8-23.9-8.6-43.4-27.5-58.1c-38.7-30-84.1-17.6-114.4,16.6c-13.9-25.3-35.1-43.8-66-38.5&#xA;&#9;&#9;c-26.5,4.5-48.7,27.9-51.8,54.6c-11.3-4.2-24.2-2.2-35,3s-20,13.5-28.5,21.9c-10.3,10.2-20.3,21.2-26,34.5c-3.9,9-3.9,18.3-4,27.9&#xA;&#9;&#9;c0,1.6,3.1,25.8,5.9,23.4C3.8,304.6,45,370.3,89.2,380.1c19.6,4.4,41.5-0.4,56.4-13.9c18.2,12.2,38.5,20.9,59.9,25.5&#xA;&#9;&#9;c29.6,6.3,61.4,8.7,90.6-0.9c7.4-2.4,13.9-6.2,21-9.4c8.6-3.9,9.9-0.5,18.9,2.4c15,4.8,31.6,3.3,46.4-1.3&#xA;&#9;&#9;c15.9-4.8,32.7-15.7,33.8-32.3c16.9,1.1,34.7-6.3,44-20.5s8.4-34.9-3.6-46.9c2.2,2.2,12.4-20.5,12.9-22.6&#xA;&#9;&#9;C470.4,256.1,471,251.7,471.4,247.3z"/>
	<path class="st1_creativity-28" d="M253.3,398c-16.1-0.2-32.2-2-47.9-5.5c-21.3-4.6-41.6-13.2-59.7-25.3c-14.6,13-36.2,18.2-56.6,13.7&#xA;&#9;&#9;c-26.5-5.9-52.7-32.4-59.6-60.4c-4.9-20,0.5-38.1,15.3-51.1c-3-3.4-5.2-22.9-5.2-23.8v-0.7c0.1-9.5,0.2-18.6,4.1-27.5&#xA;&#9;&#9;c5.8-13.6,16-24.7,26.2-34.7c8.4-8.3,17.8-16.7,28.7-22c11.8-5.7,24.4-6.9,34.7-3.3c3.5-26.6,25.9-49.8,52.3-54.3&#xA;&#9;&#9;c26.8-4.6,49.7,8.6,66.2,38c15.3-17,34.4-28.3,53.7-31.8c21.4-3.9,42.5,1.6,60.9,15.9c18.9,14.7,28.3,34.1,27.8,57.6&#xA;&#9;&#9;c5.7-2.3,11.9-3,17.9-1.9c3.9,0.6,7.8,1,11.8,1.2c9.1,0.7,16.4,1.2,25.5,9.3c12.4,11.1,20.3,26.3,22.4,42.8&#xA;&#9;&#9;c0.5,4.4,0.6,8.8,0.3,13.2l-0.7-0.1l0.7,0.1c-0.3,4.4-1,8.8-1.9,13.2c-0.4,1.6-8.3,19.9-12.2,22.9c11.1,12,12.4,32.3,2.8,46.8&#xA;&#9;&#9;c-9,13.7-26.1,21.8-44,20.8c-1.1,11-10.7,25-34.3,32.2c-11.9,3.6-29.7,6.8-46.8,1.3c-2-0.7-4-1.4-5.9-2.3&#xA;&#9;&#9;c-4.3-1.9-6.5-2.8-12.4-0.1c-2.2,1-4.4,2.1-6.5,3.1c-4.7,2.4-9.6,4.5-14.5,6.3C282.4,396,267.9,398.1,253.3,398z M145.6,365.6&#xA;&#9;&#9;c0.1,0,0.3,0,0.4,0.1c18.1,12.2,38.4,20.8,59.7,25.3c35.8,7.6,65.3,7.3,90.2-0.8c4.9-1.7,9.7-3.8,14.4-6.2c2.1-1,4.3-2.1,6.5-3.1&#xA;&#9;&#9;c6.5-3,9.2-1.8,13.6,0.1c1.9,0.9,3.8,1.6,5.8,2.3c16.8,5.4,34.3,2.3,46-1.3c23.4-7.1,32.6-21,33.3-31.7c0-0.4,0.4-0.7,0.8-0.6&#xA;&#9;&#9;c17.5,1.2,34.6-6.7,43.4-20.2c9.4-14.4,7.9-34.6-3.5-46l0,0c-0.3-0.3-0.3-0.7,0-1c0,0,0,0,0,0c0.2-0.2,0.6-0.3,0.9-0.1&#xA;&#9;&#9;c2.3-0.8,11.2-19.4,11.8-22.2c0.9-4.3,1.6-8.6,1.9-13l0,0c1.6-20.8-6.6-41.1-22.2-54.9c-8.8-7.8-15.8-8.3-24.7-9&#xA;&#9;&#9;c-4-0.2-8-0.7-11.9-1.4c-6.1-1.1-12.4-0.3-18.1,2.3c-0.2,0.1-0.5,0.1-0.7-0.1c-0.2-0.1-0.3-0.4-0.3-0.6&#xA;&#9;&#9;c0.8-23.5-8.4-42.9-27.2-57.5c-18.1-14-38.8-19.5-59.8-15.6c-19.3,3.5-38.4,14.9-53.6,32.1c-0.2,0.2-0.4,0.3-0.6,0.2&#xA;&#9;&#9;c-0.2,0-0.4-0.2-0.5-0.4c-20.5-37.3-46.8-41.3-65.2-38.2c-26.1,4.4-48.1,27.7-51.2,54c0,0.2-0.1,0.4-0.3,0.5&#xA;&#9;&#9;c-0.2,0.1-0.4,0.1-0.6,0.1c-10.1-3.8-22.7-2.7-34.5,3c-10.8,5.2-20,13.6-28.3,21.8c-10.1,9.9-20.2,20.9-25.9,34.2&#xA;&#9;&#9;c-3.8,8.7-3.9,17.6-4,27v0.7c0,2.5,2.9,21.5,4.8,22.9c0.3-0.2,0.7-0.2,0.9,0.1c0.3,0.3,0.2,0.7-0.1,1l0,0&#xA;&#9;&#9;c-15.1,12.6-20.7,30.6-15.8,50.5c6.7,27.5,32.4,53.6,58.5,59.4c20.1,4.5,41.5-0.8,55.8-13.7C145.3,365.6,145.4,365.6,145.6,365.6z"/>
</g>
<g id="Lamp_creativity-28">
	<path class="st0_creativity-28" d="M185.5,315.7c-14.3,0-14.4-2.1-17-9.8c-4.8-13.9-13.8-24.6-23.3-35.6c-35-40.6-23-104.1,36.5-114.9&#xA;&#9;&#9;c40.4-7.3,74.1,14.1,81.1,53.4c3.4,19.5-0.9,38-11.8,54.4c-7.4,11.2-13.6,22.5-15.7,35.9c-1.4,8.6-0.7,13.8-15.9,13.8&#xA;&#9;&#9;c-5.5,0-11,0.9-16.5,1.3C197,314.7,191.3,315.7,185.5,315.7z"/>
	<path class="st2_creativity-28" d="M185.5,316.4c-13.7,0-14.8-1.8-17.4-9.4l-0.3-0.9c-4.8-14.1-14.1-24.9-23.1-35.3&#xA;&#9;&#9;c-18.4-21.3-24.5-49.7-15.9-73.9c7.9-22.4,26.7-37.4,52.8-42.1c20.6-3.7,40.2,0,55.2,10.4c14.2,9.9,23.4,24.9,26.6,43.5&#xA;&#9;&#9;c3.4,19.1-0.8,38.1-11.9,54.9c-6.4,9.7-13.3,21.5-15.6,35.6c-0.1,0.7-0.2,1.4-0.3,2.1c-1.1,7.4-1.8,12.3-16.3,12.3&#xA;&#9;&#9;c-3.7,0.1-7.5,0.3-11.2,0.8c-1.7,0.2-3.5,0.4-5.2,0.5c-2,0.2-3.9,0.4-5.9,0.6C193.2,316.1,189.3,316.4,185.5,316.4z M197,154.8&#xA;&#9;&#9;c-5.1,0-10.2,0.5-15.2,1.4c-25.6,4.6-43.9,19.2-51.7,41.2c-8.4,23.8-2.4,51.6,15.6,72.5c9.1,10.5,18.5,21.4,23.4,35.8l0.3,0.9&#xA;&#9;&#9;c2.3,6.8,2.9,8.4,16.1,8.4c3.8-0.1,7.6-0.4,11.3-0.9c2-0.2,3.9-0.5,5.9-0.6c1.7-0.1,3.5-0.3,5.2-0.5c3.8-0.5,7.5-0.7,11.3-0.8&#xA;&#9;&#9;c13.3,0,13.9-3.7,14.9-11.1c0.1-0.7,0.2-1.4,0.3-2.1c2.3-14.4,9.3-26.4,15.8-36.2c11.1-16.7,15.1-34.9,11.7-53.9&#xA;&#9;&#9;c-3.2-18.2-12.2-33-26-42.6C225,158.7,211.6,154.8,197,154.8z"/>
	<path class="st0_creativity-28" d="M229.9,328.9l-51.1,4.2c-2.1,0.2-4-1.4-4.2-3.5l-0.7-9c-0.2-2.1,1.4-4,3.5-4.2l51.1-4.2c2.1-0.2,4,1.4,4.2,3.5&#xA;&#9;&#9;l0.7,9C233.6,326.9,232,328.7,229.9,328.9z"/>
	<path class="st2_creativity-28" d="M178.4,333.9c-2.4,0-4.3-1.8-4.5-4.2l-0.8-9c-0.2-2.5,1.7-4.7,4.2-4.9l51.1-4.2c2.5-0.2,4.7,1.7,4.9,4.2l0.8,9&#xA;&#9;&#9;c0.2,2.5-1.7,4.7-4.2,4.9l-51.1,4.2H178.4z M178.8,333.1L178.8,333.1z M228.8,312.9h-0.3l-51.1,4.2c-1.7,0.1-3,1.7-2.9,3.4&#xA;&#9;&#9;c0,0,0,0,0,0l0.7,9c0.1,1.7,1.7,3,3.4,2.9l51.1-4.2c1.7-0.1,3-1.7,2.9-3.4c0,0,0,0,0,0l-0.7-9C231.8,314.2,230.4,312.9,228.8,312.9&#xA;&#9;&#9;L228.8,312.9z"/>
	<path class="st0_creativity-28" d="M231.2,345.6l-51.1,4.2c-2.1,0.2-4-1.4-4.2-3.5l-0.7-9c-0.2-2.1,1.4-4,3.5-4.2l51.1-4.2c2.1-0.2,4,1.4,4.2,3.5&#xA;&#9;&#9;l0.7,9C234.9,343.6,233.4,345.4,231.2,345.6z"/>
	<path class="st2_creativity-28" d="M179.8,350.5c-2.4,0-4.3-1.8-4.5-4.2l-0.8-9c-0.2-2.5,1.7-4.7,4.2-4.9l51.1-4.2c2.5-0.2,4.7,1.7,4.9,4.2&#xA;&#9;&#9;c0,0,0,0,0,0l0.8,9c0.2,2.5-1.7,4.7-4.2,4.9l-51.1,4.2L179.8,350.5L179.8,350.5z M180.1,349.8L180.1,349.8z M230.1,329.6h-0.3&#xA;&#9;&#9;l-51.1,4.2c-1.7,0.1-3,1.7-2.9,3.4c0,0,0,0,0,0l0.7,9c0.1,1.7,1.7,3,3.4,2.9l51.1-4.2c1.7-0.1,3-1.7,2.9-3.4l-0.7-9&#xA;&#9;&#9;C233.1,330.9,231.8,329.6,230.1,329.6L230.1,329.6z"/>
	<path class="st2_creativity-28" d="M182.9,349.6c0.5,6.3,11.1,10.5,23.7,9.5s22.4-7,21.9-13.3L182.9,349.6z"/>
	<path class="st2_creativity-28" d="M202.8,360c-11.3,0-20.1-4.2-20.6-10.3c0-0.2,0-0.4,0.2-0.5c0.1-0.1,0.3-0.2,0.5-0.2l45.6-3.8&#xA;&#9;&#9;c0.4,0,0.7,0.2,0.8,0.6c0,0,0,0,0,0c0.6,6.8-9.3,12.9-22.5,14C205.3,359.9,204,360,202.8,360z M183.7,350.3&#xA;&#9;&#9;c0.6,2.5,2.9,4.7,6.8,6.2c5.1,1.9,10.6,2.5,16.1,2c11.7-1,20.9-6.2,21.2-11.8L183.7,350.3z"/>
	<path class="st1_creativity-28" d="M188.1,307.3L188.1,307.3c-0.4,0-0.7-0.3-0.7-0.7c0,0,0,0,0,0c1.1-14.5,0.4-29.2-2.1-43.5&#xA;&#9;&#9;c-3.8-0.8-7.4-2.1-10.8-3.8c-6.6-3.3-11.7-7.7-14.7-12.8c-3.6-6.1-4.2-13.5-1.6-19.2c0.7-2,2.4-3.5,4.5-4c4.3-0.9,9,3.1,10.3,4.3&#xA;&#9;&#9;c8.2,7.6,10.9,20.8,13,31.3l0.3,1.4l0.3,1.7c6.9,1.4,14,1.4,20.8,0c0.2-3.5,0.5-7,1.1-10.4c1.9-11.2,4.8-19.5,8.7-24.7&#xA;&#9;&#9;c5-5.7,13.6-6.3,19.3-1.4c0.2,0.2,0.5,0.4,0.7,0.7c3,3.5,3.9,9,2.3,14c-1.3,4-4,7.8-8.3,11.6c-6.4,5.6-14.1,9.5-22.4,11.3&#xA;&#9;&#9;c-0.5,13.5,1.8,27.1,4,40.3l0.3,1.6c0.1,0.4-0.2,0.7-0.6,0.8c0,0,0,0,0,0c-0.4,0.1-0.7-0.2-0.8-0.6c0,0,0,0,0,0l-0.3-1.6&#xA;&#9;&#9;c-2.2-13.2-4.5-26.7-4-40.2c-6.8,1.4-13.7,1.4-20.5,0.1c2.4,14.3,3.1,28.8,2,43.3C188.8,307,188.5,307.3,188.1,307.3z M164,224.4&#xA;&#9;&#9;c-0.3,0-0.7,0-1,0.1c-1.6,0.4-3,1.6-3.5,3.2c-2.5,5.3-1.9,12.2,1.5,17.9c2.9,4.9,7.8,9.1,14.1,12.3c3.2,1.6,6.5,2.8,9.9,3.6&#xA;&#9;&#9;c-0.1-0.4-0.1-0.7-0.2-1.1l-0.3-1.4c-2.1-10.4-4.6-23.2-12.6-30.6C169.9,226.4,166.7,224.4,164,224.4z M227.6,223.4h-0.5&#xA;&#9;&#9;c-3.4,0-6.6,1.5-8.7,4.1c-3.7,5-6.5,13.1-8.4,24.1c-0.6,3.3-0.9,6.6-1.1,9.9c7.9-1.8,15.2-5.6,21.3-10.9c4.1-3.6,6.7-7.2,7.9-11&#xA;&#9;&#9;c1.5-4.6,0.7-9.5-2-12.6C233.9,224.6,230.8,223.3,227.6,223.4L227.6,223.4z"/>
</g>
<g id="Gears_creativity-28">
	<path class="st3_creativity-28 targetColor" d="M246.7,310.6c0.6-2.2,1.1-4.4,1.7-6.6c0.3-1.1,0.7-2.3,1-3.4c0.4-1.5,1.7-2.5,3.2-2.4c1.8,0,3.5,0.3,5.3,0.4&#xA;&#9;&#9;c0.9,0.1,1.9,0.2,2.8,0.1c0.7,0,1.4-0.3,1.9-0.8c1.9-2.1,3.6-4.2,5.3-6.4c0.6-0.8,0.7-1.9,0.4-2.8c-0.6-2.1-1.3-4.1-1.9-6.2&#xA;&#9;&#9;c-0.3-0.8-0.4-1.6-0.4-2.5c0-0.6,0.2-1.2,0.7-1.7c3.1-2.4,6.4-4.2,10.1-5.6c1.1-0.4,2.4-0.1,3.1,0.8c1.5,1.7,3,3.4,4.5,5.2&#xA;&#9;&#9;c1,1.4,2.6,2.1,4.3,1.8c2.3-0.4,4.6-0.6,6.9-0.9c0.9-0.1,1.6-0.6,2-1.4c0.7-1.3,1.4-2.6,2.1-3.9c0.6-1.1,1.2-2.2,1.9-3.3&#xA;&#9;&#9;c0.6-1.1,1.9-1.7,3.1-1.4c3.3,0.9,6.6,1.7,9.8,2.7c1.3,0.4,2.1,1.6,2,3c0,1.8-0.3,3.6-0.4,5.4c-0.1,0.8-0.1,1.7-0.1,2.5&#xA;&#9;&#9;c-0.1,1.1,0.4,2.2,1.3,2.9c1.8,1.5,3.6,2.9,5.4,4.4c1,1,2.5,1.2,3.8,0.8c2.2-0.7,4.5-1.4,6.7-2.1c1.5-0.7,3.3,0,4,1.5&#xA;&#9;&#9;c1.5,2.6,3,5.3,4.4,8c1,2,0.8,3.1-0.8,4.7c-1.1,1-2.3,1.9-3.4,2.9c-0.8,0.7-1.6,1.4-2.4,2.2c-0.7,0.6-1,1.5-0.9,2.5&#xA;&#9;&#9;c0.2,2.4,0.5,4.8,0.8,7.2c0.2,1.3,1,2.4,2.2,3c1.4,0.7,2.8,1.3,4.1,2c0.9,0.4,1.7,0.9,2.5,1.4c1.2,0.7,1.8,2.1,1.3,3.4&#xA;&#9;&#9;c-0.8,3-1.7,5.9-2.5,8.9c-0.2,0.5-0.4,0.9-0.6,1.3c-0.5,1-1.5,1.6-2.6,1.5c-2.1-0.2-4.2-0.4-6.3-0.5c-0.2,0-0.3,0-0.5,0&#xA;&#9;&#9;c-1.8-0.3-3.7,0.5-4.6,2c-1.1,1.5-2.3,2.8-3.4,4.2c-1.1,1.3-1.4,3-0.8,4.6c0.7,2,1.3,4,1.9,6s0.3,3.1-1.6,4.2&#xA;&#9;&#9;c-2.7,1.6-5.5,3.1-8.2,4.5c-1.3,0.8-3,0.5-3.9-0.7c-1.2-1.3-2.4-2.7-3.5-4.1c-2.5-3-3.1-3.2-6.9-2.7l-4.5,0.6&#xA;&#9;&#9;c-1.5,0.1-2.7,1-3.4,2.3c-0.8,1.6-1.5,3.2-2.4,4.7c-0.4,0.8-1,1.6-1.6,2.3c-0.5,0.7-1.5,1.1-2.3,0.8c-3.1-0.9-6.2-1.8-9.4-2.7&#xA;&#9;&#9;c-0.4-0.2-0.8-0.3-1.2-0.6c-1-0.4-1.6-1.5-1.5-2.6c0.2-2.1,0.4-4.2,0.5-6.2c0-0.6,0-1.3,0-1.9c0-1-0.4-2-1.3-2.7&#xA;&#9;&#9;c-1.8-1.4-3.5-2.8-5.3-4.2c-1-0.9-2.4-1.1-3.6-0.6c-2,0.6-4,1.3-6,1.9l-0.2,0.1c-2.6,0.7-3.5,0.4-4.8-1.9c-1.5-2.6-2.9-5.3-4.2-8&#xA;&#9;&#9;c-0.8-1.6-0.6-2.6,0.8-3.9s3.1-2.7,4.7-3.9c1.6-1.1,2.4-3.1,2.1-5c-0.3-2.1-0.5-4.3-0.8-6.4c-0.1-0.9-0.6-1.7-1.4-2.2&#xA;&#9;&#9;c-1.9-1-3.8-2-5.7-3c-1.3-0.5-2.4-1.5-3.1-2.7L246.7,310.6z M316.3,317.1c-0.9-11.3-10.7-19.8-22-18.9c-0.1,0-0.1,0-0.2,0&#xA;&#9;&#9;c-9.5,0.7-19.5,9.8-18.5,22.1c0.9,11.2,10.7,19.6,21.9,18.8C310.6,338.2,317.6,326.2,316.3,317.1z" style="fill: rgb(104, 225, 253);"/>
	<path class="st3_creativity-28 targetColor" d="M265.1,154.5c0.3-1.3,0.7-2.7,1-4c0.2-0.7,0.4-1.4,0.6-2.1c0.2-0.9,1.1-1.5,2-1.4c1.1,0,2.1,0.2,3.2,0.2&#xA;&#9;&#9;c0.6,0.1,1.1,0.1,1.7,0.1c0.4,0,0.8-0.2,1.1-0.5c1.1-1.2,2.2-2.5,3.2-3.8c0.4-0.5,0.4-1.1,0.2-1.7c-0.4-1.2-0.8-2.5-1.1-3.7&#xA;&#9;&#9;c-0.2-0.5-0.2-1-0.3-1.5c0-0.4,0.1-0.7,0.4-1c1.8-1.4,3.8-2.5,6-3.4c0.7-0.3,1.4-0.1,1.8,0.5c0.9,1,1.8,2,2.7,3.1&#xA;&#9;&#9;c0.6,0.8,1.6,1.2,2.6,1c1.4-0.2,2.8-0.3,4.1-0.5c0.5-0.1,1-0.4,1.2-0.9c0.4-0.8,0.8-1.6,1.3-2.4s0.7-1.3,1.1-2&#xA;&#9;&#9;c0.4-0.7,1.1-1,1.9-0.8c2,0.5,4,1,5.9,1.6c0.8,0.2,1.3,1,1.2,1.8c0,1.1-0.2,2.1-0.3,3.2c0,0.5-0.1,1-0.1,1.5c0,0.7,0.3,1.3,0.8,1.7&#xA;&#9;&#9;c1.1,0.9,2.2,1.7,3.2,2.6c0.6,0.6,1.5,0.8,2.3,0.5c1.4-0.4,2.7-0.9,4-1.3c0.9-0.4,2,0,2.4,0.9c0.9,1.6,1.8,3.2,2.7,4.8&#xA;&#9;&#9;c0.6,0.9,0.4,2.1-0.5,2.8c0,0,0,0,0,0c-0.7,0.6-1.4,1.2-2.1,1.8c-0.5,0.4-1,0.9-1.4,1.3c-0.4,0.4-0.6,0.9-0.5,1.5&#xA;&#9;&#9;c0.1,1.4,0.3,2.9,0.5,4.3c0.1,0.8,0.6,1.5,1.3,1.8l2.6,1.3c0.5,0.3,1,0.5,1.5,0.8c0.7,0.4,1,1.2,0.8,2c-0.5,1.8-1,3.6-1.5,5.4&#xA;&#9;&#9;c-0.1,0.3-0.2,0.5-0.4,0.8c-0.3,0.6-0.9,1-1.6,0.9l-3.8-0.3c-0.1,0-0.2,0-0.3,0c-1.1-0.2-2.2,0.3-2.8,1.2c-0.6,0.9-1.4,1.7-2.1,2.6&#xA;&#9;&#9;c-0.7,0.8-0.8,1.8-0.5,2.8c0.4,1.2,0.8,2.4,1.1,3.6c0.5,0.9,0.1,2-0.8,2.4c-0.1,0-0.1,0.1-0.2,0.1c-1.6,1-3.3,1.9-5,2.7&#xA;&#9;&#9;c-0.8,0.5-1.8,0.3-2.3-0.4c-0.7-0.8-1.4-1.6-2.1-2.5c-1.5-1.8-1.8-1.9-4.1-1.6l-2.7,0.4c-0.9,0.1-1.6,0.6-2,1.4&#xA;&#9;&#9;c-0.5,1-0.9,1.9-1.4,2.9c-0.3,0.5-0.6,0.9-0.9,1.4c-0.3,0.4-0.9,0.6-1.4,0.5c-1.9-0.5-3.8-1.1-5.6-1.6c-0.3-0.1-0.5-0.2-0.7-0.3&#xA;&#9;&#9;c-0.6-0.3-1-0.9-0.9-1.6c0.1-1.2,0.2-2.5,0.3-3.8c0-0.4,0-0.8,0-1.1c0-0.6-0.3-1.2-0.8-1.6c-1.1-0.8-2.1-1.7-3.2-2.5&#xA;&#9;&#9;c-0.6-0.5-1.4-0.6-2.2-0.4c-1.2,0.4-2.4,0.8-3.6,1.1h-0.1c-1.6,0.4-2.1,0.2-2.9-1.1c-0.9-1.6-1.7-3.2-2.5-4.8&#xA;&#9;&#9;c-0.5-0.8-0.3-1.8,0.4-2.3c0,0,0,0,0,0c0.9-0.8,1.8-1.6,2.8-2.3c1-0.7,1.4-1.8,1.2-3c-0.2-1.3-0.3-2.6-0.5-3.9&#xA;&#9;&#9;c-0.1-0.6-0.4-1-0.9-1.3l-3.4-1.8c-0.8-0.3-1.4-0.9-1.9-1.6L265.1,154.5z M307,158.5c-0.5-6.8-6.5-11.9-13.3-11.3c0,0-0.1,0-0.1,0&#xA;&#9;&#9;c-6.7,0.7-11.6,6.6-11.1,13.3c0.6,6.7,6.4,11.8,13.2,11.3C303.5,171.1,307.7,163.8,307,158.5L307,158.5z" style="fill: rgb(104, 225, 253);"/>
</g>
<g id="Pencil_creativity-28">
	<polygon class="st0_creativity-28" points="115.5,327.4 115.9,301.9 140.7,308 143.6,324.1 147,342.1 131.1,334.7 &#9;"/>
	<path class="st2_creativity-28" d="M147,342.8c-0.1,0-0.2,0-0.3-0.1L115.2,328c-0.2-0.1-0.4-0.4-0.4-0.6l0.4-25.5c0-0.2,0.1-0.4,0.3-0.5&#xA;&#9;&#9;c0.2-0.1,0.4-0.2,0.6-0.1l24.7,6.1c0.3,0.1,0.5,0.3,0.5,0.5l6.3,34.2c0,0.3-0.1,0.5-0.3,0.7C147.3,342.7,147.1,342.8,147,342.8z&#xA;&#9;&#9; M116.3,326.9l29.7,14l-6-32.4l-23.4-5.8L116.3,326.9z"/>
	
		<rect x="87.6" y="219.7" transform="matrix(0.7915 -0.6111 0.6111 0.7915 -146.9084 113.5071)" class="st0_creativity-28" width="10.6" height="104.8"/>
	<path class="st2_creativity-28" d="M120.8,317.5L120.8,317.5c-0.3,0-0.4-0.1-0.5-0.3l-64-83c-0.1-0.1-0.2-0.3-0.1-0.5c0-0.2,0.1-0.3,0.3-0.5&#xA;&#9;&#9;l8.4-6.5c0.3-0.2,0.7-0.2,1,0.1c0,0,0,0,0,0l64.1,83c0.2,0.3,0.2,0.7-0.1,1c0,0,0,0,0,0l-8.4,6.5&#xA;&#9;&#9;C121.1,317.5,120.9,317.5,120.8,317.5z M57.7,234l63.2,81.9l7.3-5.6L65,228.4L57.7,234z"/>
	<polygon class="st2_creativity-28" points="65.1,227.4 76.6,225 140.7,308 129.1,310.3 &#9;"/>
	<path class="st2_creativity-28" d="M129.1,311c-0.2,0-0.4-0.1-0.6-0.3l-64.1-83c-0.1-0.2-0.2-0.4-0.1-0.7c0.1-0.2,0.3-0.4,0.5-0.4l11.5-2.4&#xA;&#9;&#9;c0.3-0.1,0.5,0,0.7,0.3l64,83c0.2,0.2,0.2,0.4,0.1,0.7c-0.1,0.2-0.3,0.4-0.5,0.4l-11.5,2.4H129.1z M66.3,227.8l63.1,81.7l10-2.1&#xA;&#9;&#9;l-63.1-81.7L66.3,227.8z"/>
	<polygon class="st2_creativity-28" points="51.5,244.4 56.7,233.9 120.8,316.8 115.5,327.4 &#9;"/>
	<path class="st2_creativity-28" d="M115.5,328.1c-0.2,0-0.4-0.1-0.6-0.3l-64-83c-0.2-0.2-0.2-0.5-0.1-0.7l5.2-10.6c0.2-0.3,0.6-0.5,0.9-0.3&#xA;&#9;&#9;c0.1,0,0.2,0.1,0.2,0.2l64.1,83c0.2,0.2,0.2,0.5,0.1,0.7l-5.2,10.6c-0.1,0.2-0.3,0.4-0.6,0.4L115.5,328.1z M52.3,244.3l63.1,81.7&#xA;&#9;&#9;l4.5-9.2l-63.1-81.7L52.3,244.3z"/>
	<polygon class="st3_creativity-28 targetColor" points="131.1,334.7 132.1,329.8 139.7,324 143.6,324.1 147,342.1 &#9;" style="fill: rgb(104, 225, 253);"/>
	<path class="st2_creativity-28" d="M147,342.8c-0.1,0-0.2,0-0.3-0.1l-15.9-7.4c-0.3-0.1-0.5-0.5-0.4-0.8l1-4.8c0-0.2,0.1-0.3,0.3-0.4l7.6-5.9&#xA;&#9;&#9;c0.1-0.1,0.3-0.1,0.4-0.1l4,0.1c0.3,0,0.6,0.2,0.7,0.6l3.3,18c0,0.3-0.1,0.5-0.3,0.7C147.3,342.7,147.2,342.8,147,342.8z&#xA;&#9;&#9; M131.9,334.3l14.1,6.6l-3-16.1l-3.1-0.1l-7.2,5.5L131.9,334.3z"/>
</g>
<g id="Notes_creativity-28">
	<polygon class="st2_creativity-28" points="408.2,316.6 302.3,281 347.6,146.3 432.1,174.7 446.1,203.7 &#9;"/>
	<path class="st2_creativity-28" d="M408.2,317.3c-0.1,0-0.2,0-0.2,0l-105.8-35.6c-0.4-0.1-0.6-0.5-0.4-0.9c0,0,0,0,0,0L347,146&#xA;&#9;&#9;c0.1-0.4,0.5-0.6,0.9-0.4c0,0,0,0,0,0l84.4,28.4c0.2,0.1,0.3,0.2,0.4,0.4l14,29c0.1,0.2,0.1,0.4,0,0.5l-38,112.9&#xA;&#9;&#9;c-0.1,0.2-0.2,0.3-0.4,0.4C408.3,317.2,408.2,317.3,408.2,317.3z M303.2,280.6l104.5,35.1l37.6-112l-13.8-28.5l-83.5-28.1&#xA;&#9;&#9;L303.2,280.6z"/>
	<polygon class="st0_creativity-28" points="397.5,323.5 291.7,288 337,153.2 421.4,181.6 435.5,210.6 &#9;"/>
	<path class="st2_creativity-28" d="M397.5,324.2c-0.1,0-0.1,0-0.2,0l-105.8-35.6c-0.4-0.1-0.6-0.5-0.4-0.9c0,0,0,0,0,0L336.3,153&#xA;&#9;&#9;c0.1-0.4,0.5-0.6,0.9-0.4c0,0,0,0,0,0l84.4,28.4c0.2,0.1,0.3,0.2,0.4,0.4l14,29c0.1,0.2,0.1,0.4,0,0.5l-38,112.9&#xA;&#9;&#9;c-0.1,0.2-0.2,0.3-0.4,0.4C397.7,324.2,397.6,324.2,397.5,324.2z M292.6,287.5l104.5,35.1l37.7-112l-13.8-28.5l-83.5-28.1&#xA;&#9;&#9;L292.6,287.5z"/>
	<polygon class="st0_creativity-28" points="421.4,181.6 413.4,203.2 435.5,210.6 &#9;"/>
	<path class="st2_creativity-28" d="M435.5,211.3c-0.1,0-0.1,0-0.2,0l-22.1-7.4c-0.4-0.1-0.6-0.5-0.4-0.9c0,0,0,0,0,0l8-21.6&#xA;&#9;&#9;c0.1-0.3,0.3-0.4,0.6-0.4c0.3,0,0.5,0.1,0.7,0.4l14,29c0.1,0.3,0.1,0.6-0.1,0.8C435.8,211.3,435.7,211.3,435.5,211.3z M414.3,202.8&#xA;&#9;&#9;l19.8,6.7l-12.6-26.1L414.3,202.8z"/>
	<path class="st1_creativity-28" d="M416.7,221c-0.1,0-0.1,0-0.2,0l-76.2-25.7c-0.4-0.1-0.6-0.5-0.4-0.9c0,0,0,0,0,0c0.1-0.4,0.5-0.6,0.9-0.4&#xA;&#9;&#9;c0,0,0,0,0,0l76.3,25.6c0.4,0.1,0.6,0.5,0.4,0.9C417.3,220.8,417.1,221,416.7,221L416.7,221z"/>
	<path class="st1_creativity-28" d="M411.9,235.3c-0.1,0-0.1,0-0.2,0l-76.2-25.6c-0.4-0.1-0.6-0.5-0.4-0.9c0.1-0.4,0.5-0.6,0.9-0.4l76.2,25.6&#xA;&#9;&#9;c0.4,0.1,0.6,0.5,0.5,0.9C412.5,235.2,412.2,235.4,411.9,235.3L411.9,235.3z"/>
	<path class="st1_creativity-28" d="M407.1,249.6c-0.1,0-0.2,0-0.2,0L330.7,224c-0.4-0.1-0.6-0.5-0.4-0.9c0.1-0.4,0.5-0.6,0.9-0.4l76.2,25.6&#xA;&#9;&#9;c0.4,0.1,0.6,0.5,0.5,0.9C407.7,249.5,407.4,249.7,407.1,249.6L407.1,249.6z"/>
	<path class="st1_creativity-28" d="M402.3,264c-0.1,0-0.1,0-0.2,0l-76.2-25.6c-0.4-0.1-0.6-0.5-0.4-0.9c0,0,0,0,0,0c0.1-0.4,0.5-0.6,0.9-0.4&#xA;&#9;&#9;l76.2,25.6c0.4,0.1,0.6,0.5,0.4,0.9C402.8,263.8,402.6,264,402.3,264L402.3,264z"/>
	<path class="st1_creativity-28" d="M397.5,278.3c-0.1,0-0.1,0-0.2,0L321,252.6c-0.4-0.1-0.6-0.5-0.5-0.8c0.1-0.4,0.5-0.6,0.8-0.5c0,0,0.1,0,0.1,0&#xA;&#9;&#9;l76.2,25.6c0.4,0.1,0.6,0.5,0.4,0.9C398,278.1,397.7,278.3,397.5,278.3L397.5,278.3z"/>
	<path class="st1_creativity-28" d="M370.2,285.1c-0.1,0-0.1,0-0.2,0L316.2,267c-0.4-0.1-0.6-0.5-0.4-0.9c0.1-0.4,0.5-0.6,0.9-0.4c0,0,0,0,0,0&#xA;&#9;&#9;l53.8,18.1c0.4,0.1,0.6,0.5,0.4,0.9c0,0,0,0,0,0C370.8,284.9,370.5,285.1,370.2,285.1z"/>
</g>
<g id="Bubble-2_creativity-28">
	<path class="st0_creativity-28" d="M88.5,134.5C66.1,139.3,50.6,156.1,54,172c2,9.3,9.9,16.2,20.5,19.5c3.6,6.1,10.7,13.3,25.3,18.7&#xA;&#9;&#9;c-4.4-4.7-7.6-10.4-9.4-16.6c3.5-0.1,6.9-0.5,10.3-1.2c22.4-4.8,37.9-21.5,34.5-37.5S110.9,129.8,88.5,134.5z"/>
	<path class="st2_creativity-28" d="M99.8,210.8c-0.1,0-0.2,0-0.2,0C87.4,206.3,78.8,200,74.1,192c-11.3-3.5-18.8-10.8-20.8-19.9&#xA;&#9;&#9;c-3.4-16.3,12.3-33.5,35.1-38.3l0,0c22.8-4.8,44.1,4.5,47.6,20.8s-12.3,33.5-35,38.3c-3.1,0.7-6.3,1.1-9.5,1.2&#xA;&#9;&#9;c1.8,5.8,4.9,11.1,9,15.5c0.2,0.2,0.3,0.6,0.1,0.9C100.3,210.7,100.1,210.9,99.8,210.8z M88.6,135.2c-22,4.7-37.3,21.1-34,36.6&#xA;&#9;&#9;c1.8,8.7,9.2,15.6,20.1,18.9c0.2,0,0.3,0.2,0.4,0.3c4.2,7.2,11.7,13,22.2,17.4c-3.5-4.4-6.1-9.4-7.6-14.8c-0.1-0.2,0-0.4,0.1-0.6&#xA;&#9;&#9;c0.1-0.2,0.3-0.3,0.5-0.3c3.4-0.1,6.8-0.5,10.2-1.2c22-4.7,37.3-21.1,34-36.6S110.7,130.6,88.6,135.2L88.6,135.2z"/>
	<path class="st1_creativity-28" d="M80.1,174.5c-0.3,0-0.6,0-0.9-0.1c-2.7-0.4-5-2.1-6.3-4.5c-1.2,1.6-2.9,2.6-4.8,2.9c-0.4,0-0.7-0.2-0.8-0.6&#xA;&#9;&#9;c0-0.4,0.2-0.7,0.6-0.8c1.8-0.3,3.4-1.3,4.3-2.9c-1-2.3-0.8-5,0.3-7.2c0.2-0.3,0.6-0.4,1-0.3c0.1,0.1,0.2,0.1,0.3,0.3&#xA;&#9;&#9;c1.3,2.2,1.3,4.9,0.1,7.2c0,0-0.1,0.1-0.1,0.1l0.1,0.3c1.5,3.5,5.5,5.1,9,3.7c1.1-0.5,2.1-1.2,2.8-2.2c0.7-0.8,1.2-1.6,1.5-2.5&#xA;&#9;&#9;c-0.8-1.5-0.7-3.4,0.4-4.8c0.2-0.2,0.4-0.3,0.7-0.2c0.3,0.1,0.5,0.3,0.5,0.5c0.4,1.4,0.3,2.9-0.1,4.4c0.6,1,1.7,1.7,2.9,1.7&#xA;&#9;&#9;c1.2-0.1,2.3-0.9,2.9-2c0.4-0.6,0.6-1.3,0.6-2c-0.3-0.7-0.4-1.5-0.4-2.3c0-0.4,0.3-0.7,0.7-0.7c0.3,0,0.5,0.1,0.6,0.4&#xA;&#9;&#9;c0.4,0.7,0.5,1.5,0.5,2.4c0.4,0.8,0.9,1.5,1.5,2.1c2.2,2.2,5.7,2.2,7.9,0.1c0.2-0.2,0.4-0.4,0.5-0.6c0.4-0.4,0.7-0.9,0.9-1.4&#xA;&#9;&#9;c-0.4-0.4-0.7-0.8-0.9-1.3c-0.6-1.1-0.5-2.4,0.3-3.4c0.5-0.5,1.2-0.5,1.7-0.1c0.5,0.4,0.8,1,0.8,1.6c0.1,1,0,1.9-0.3,2.8&#xA;&#9;&#9;c1.1,1.1,2.8,1.3,4.2,0.6c3.5-1.5,6.1-6.9,5.2-10.4c-0.1-0.4,0.1-0.7,0.5-0.9c0,0,0,0,0,0c0.4-0.1,0.8,0.1,0.9,0.5&#xA;&#9;&#9;c1.2,4.2-1.8,10.3-5.9,12.1c-1.7,0.8-3.8,0.6-5.3-0.6c-0.3,0.4-0.5,0.9-0.9,1.3c-2.4,3-6.8,3.6-9.8,1.2c-0.2-0.2-0.4-0.3-0.6-0.5&#xA;&#9;&#9;c-0.4-0.3-0.7-0.7-1-1.1c-0.1,0.3-0.3,0.6-0.4,0.9c-0.8,1.5-2.3,2.5-4.1,2.7c-1.4,0-2.7-0.5-3.5-1.6c-0.4,0.7-0.8,1.4-1.4,2.1&#xA;&#9;&#9;C85.1,173.2,82.7,174.4,80.1,174.5z M73.1,163.5c-0.2,1-0.3,2-0.1,3C73.3,165.6,73.3,164.5,73.1,163.5L73.1,163.5z M107.7,161.7&#xA;&#9;&#9;c-0.1,0.1-0.2,0.3-0.2,0.4c-0.1,0.4-0.1,0.8,0.1,1.2c0.1,0.1,0.2,0.3,0.3,0.4c0.1-0.5,0.1-0.9,0-1.4&#xA;&#9;&#9;C107.9,161.9,107.7,161.7,107.7,161.7L107.7,161.7z"/>
</g>
<g id="graphics_creativity-28">
	<path class="st1_creativity-28" d="M284.4,224c-1.9,0-3.5-1.6-3.5-3.5c0-1.9,1.6-3.5,3.5-3.5s3.5,1.6,3.5,3.5c0,0,0,0,0,0&#xA;&#9;&#9;C287.9,222.4,286.4,224,284.4,224z M284.4,218.4c-1.2,0-2.1,0.9-2.1,2.1c0,1.2,0.9,2.1,2.1,2.1c1.2,0,2.1-0.9,2.1-2.1c0,0,0,0,0,0&#xA;&#9;&#9;C286.5,219.3,285.6,218.4,284.4,218.4z"/>
	<path class="st1_creativity-28" d="M86.1,335.9c-1.9,0-3.5-1.6-3.5-3.5s1.6-3.5,3.5-3.5s3.5,1.6,3.5,3.5S88.1,335.9,86.1,335.9z M86.1,330.3&#xA;&#9;&#9;c-1.2,0-2.1,0.9-2.1,2.1c0,1.2,0.9,2.1,2.1,2.1c1.2,0,2.1-0.9,2.1-2.1S87.3,330.3,86.1,330.3C86.1,330.3,86.1,330.3,86.1,330.3z"/>
	<path class="st1_creativity-28" d="M109.3,225.7c-0.4,0-0.7-0.3-0.7-0.7v-7.3c0-0.4,0.3-0.7,0.7-0.7c0.4,0,0.7,0.3,0.7,0.7v7.3&#xA;&#9;&#9;C110,225.4,109.7,225.7,109.3,225.7C109.3,225.7,109.3,225.7,109.3,225.7z"/>
	<path class="st1_creativity-28" d="M113,222.1h-7.3c-0.4,0-0.7-0.3-0.7-0.7c0-0.4,0.3-0.7,0.7-0.7c0,0,0,0,0,0h7.3c0.4,0,0.7,0.3,0.7,0.7&#xA;&#9;&#9;C113.7,221.7,113.4,222,113,222.1C113,222.1,113,222.1,113,222.1z"/>
	<path class="st1_creativity-28" d="M363,360.6c-0.4,0-0.7-0.3-0.7-0.7v-7.3c0-0.4,0.3-0.7,0.7-0.7c0.4,0,0.7,0.3,0.7,0.7v7.3&#xA;&#9;&#9;C363.7,360.3,363.4,360.6,363,360.6z"/>
	<path class="st1_creativity-28" d="M366.7,356.9h-7.3c-0.4,0-0.7-0.3-0.7-0.7c0-0.4,0.3-0.7,0.7-0.7h7.3c0.4,0,0.7,0.3,0.7,0.7&#xA;&#9;&#9;S367.1,356.9,366.7,356.9C366.7,356.9,366.7,356.9,366.7,356.9z"/>
	<path class="st1_creativity-28" d="M228.5,141.3c-0.4,0-0.7-0.3-0.7-0.7v-7.3c0-0.4,0.3-0.7,0.7-0.7c0.4,0,0.7,0.3,0.7,0.7c0,0,0,0,0,0v7.3&#xA;&#9;&#9;C229.2,141,228.9,141.3,228.5,141.3z"/>
	<path class="st1_creativity-28" d="M232.1,137.6h-7.3c-0.4,0-0.7-0.3-0.7-0.7c0-0.4,0.3-0.7,0.7-0.7c0,0,0,0,0,0h7.3c0.4,0,0.7,0.3,0.7,0.7&#xA;&#9;&#9;C232.8,137.3,232.5,137.6,232.1,137.6z"/>
	<circle class="st1_creativity-28" cx="270.5" cy="257.3" r="3.1"/>
	<circle class="st1_creativity-28" cx="135.7" cy="275.3" r="3.1"/>
</g>
</svg>